<?xml version="1.0" encoding="UTF-8"?>
<svg width="19px" height="16px" viewBox="0 0 19 16" version="1.1" xmlns="http://www.w3.org/2000/svg" xmlns:xlink="http://www.w3.org/1999/xlink">
    <!-- Generator: Sketch 54 (76480) - https://sketchapp.com -->
    <title>Social_3</title>
    <desc>Created with Sketch.</desc>
    <g id="Page-1" stroke="none" stroke-width="1" fill="none" fill-rule="evenodd">
        <path d="M1.959375,0 C1.959375,0 1.4546875,0.871323294 1.4546875,2.35294118 C1.4546875,3.33823529 1.67734375,3.88235294 1.840625,4.14705882 C0.69765625,5.32720565 0,6.91544094 0,8.97058824 C0,14.2352941 3.3509768,16 9.5,16 C15.6490232,16 19,14.2352941 19,8.97058824 C19,6.84191153 18.3394536,5.24632376 17.2484375,4.08823529 C17.5193357,3.283088 17.8310544,1.76102965 17.0703125,0 C14.8029295,0 12.8917974,1.73161788 12.825,1.79411765 C11.767383,1.56249976 10.6503911,1.44117647 9.5,1.44117647 C8.32363305,1.44117647 7.16582055,1.58823529 6.0859375,1.85294118 C4.5681643,0.356617412 2.74238305,0 1.959375,0 Z M12.5578125,7.52941176 C13.1292973,7.52205929 13.667383,7.58088282 14.13125,7.73529412 C15.3707036,8.15073506 16.15,9.36029459 16.15,10.7058824 C16.1462893,14.4375002 14.2462893,15.0588235 9.38125,15.0588235 C5.7630857,15.0588235 2.8203125,14.3860292 2.8203125,10.8235294 C2.8203125,9.46323576 3.5328125,8.683824 4.0375,8.20588235 C5.14707055,7.15441224 6.89492235,7.67647059 9.38125,7.67647059 C10.509375,7.67647059 11.6041018,7.54044141 12.5578125,7.52941176 Z M5.7,9.41176471 C5.17675805,9.41176471 4.75,10.0441176 4.75,10.8235294 C4.75,11.6029412 5.17675805,12.2352941 5.7,12.2352941 C6.22324195,12.2352941 6.65,11.6029412 6.65,10.8235294 C6.65,10.0441176 6.22324195,9.41176471 5.7,9.41176471 Z M13.3,9.41176471 C12.776758,9.41176471 12.35,10.0441176 12.35,10.8235294 C12.35,11.6029412 12.776758,12.2352941 13.3,12.2352941 C13.8232419,12.2352941 14.25,11.6029412 14.25,10.8235294 C14.25,10.0441176 13.8232419,9.41176471 13.3,9.41176471 Z" id="Social_3" fill="#00C27B" fill-rule="nonzero"></path>
    </g>
</svg>