<?xml version="1.0" encoding="UTF-8"?>
<svg width="70px" height="80px" viewBox="0 0 70 80" version="1.1" xmlns="http://www.w3.org/2000/svg" xmlns:xlink="http://www.w3.org/1999/xlink">
    <!-- Generator: Sketch 54 (76480) - https://sketchapp.com -->
    <title>Proven reliability</title>
    <desc>Created with Sketch.</desc>
    <g id="Page-1" stroke="none" stroke-width="1" fill="none" fill-rule="evenodd">
        <g id="Proven-reliability">
            <path d="M34,59.7355868 L34,73 L57,73 L57,80 L3,80 L3,73 L27,73 L27,59.8518336 C11.8412537,58.3463859 0,45.554521 0,30 C0,13.4329898 13.4329898,0 30,0 C46.5670102,0 60,13.4329898 60,30 C60,45.210791 48.6763093,57.7796772 34,59.7355868 Z M32.449219,6.1234807 L32.449219,15.273438 L27.542969,17.726562 L25.089844,15.273438 L20.179688,15.273438 L20.179688,20.179688 L7.90625,27.546875 L7.90625,32.453125 L15.273438,32.453125 L22.636719,39.820312 L22.550781,49.726562 L26.696474,53.7744281 C27.7764021,53.9231483 28.8792384,54 30,54 C33.5449121,54 36.910496,53.2311567 39.939072,51.8511501 L44.730469,42.273438 L42.277344,37.363281 L37.367188,37.363281 L32.460938,32.457031 L32.460938,27.550781 L37.367188,22.640625 L42.277344,22.640625 L47.183594,25.09375 L49.636719,20.1875 L42.273438,17.734375 L37.363281,20.1875 L37.363281,15.277344 L39.820312,12.824219 L42.273438,12.824219 L42.273438,10.363281 L43.2943761,10.0162896 C40.1284049,7.90568974 36.4326376,6.5273718 32.449219,6.1234807 Z M22.636719,7.15098093 L22.636719,10.363281 L27.542969,10.363281 L27.542969,6.12427407 C25.8493077,6.29655754 24.2076854,6.64499883 22.636719,7.15098093 Z" id="Combined-Shape" fill="#FFFFFF" fill-rule="nonzero"></path>
            <circle id="Oval-Copy-43" fill="#00C27B" cx="54" cy="16" r="16"></circle>
            <polygon id="Path" fill="#FFFFFF" points="58.7173913 9 53.173913 9 49 17.3478261 52.4782609 17.3478261 49 25 60.1304348 13.8695652 55.2608696 13.8695652"></polygon>
        </g>
    </g>
</svg>