<?xml version="1.0" encoding="UTF-8"?>
<svg width="20px" height="16px" viewBox="0 0 20 16" version="1.1" xmlns="http://www.w3.org/2000/svg" xmlns:xlink="http://www.w3.org/1999/xlink">
    <!-- Generator: Sketch 54 (76480) - https://sketchapp.com -->
    <title>Social_2</title>
    <desc>Created with Sketch.</desc>
    <g id="Page-1" stroke="none" stroke-width="1" fill="none" fill-rule="evenodd">
        <path d="M20,1.89388991 C19.2638745,2.21572247 18.4731356,2.43229684 17.6431676,2.52998249 C18.4908273,2.03019547 19.1408023,1.23886601 19.4469443,0.295328695 C18.6546671,0.758010318 17.7762394,1.09423068 16.8408907,1.27597141 C16.092458,0.490699986 15.0263451,0 13.8463905,0 C11.5803238,0 9.7434714,1.80907757 9.7434714,4.03918785 C9.7434714,4.35571963 9.78039306,4.66467888 9.84962117,4.95925032 C6.43975232,4.79114014 3.41679166,3.18273463 1.39225414,0.738321738 C1.03996,1.33503715 0.83766009,2.02868096 0.83766009,2.77003171 C0.83766009,4.17094988 1.5614784,5.40754413 2.6622053,6.13147806 C1.98992346,6.11027498 1.35687089,5.92853424 0.803815238,5.62639027 C0.803815238,5.64380709 0.803815238,5.6597094 0.803815238,5.67712622 C0.803815238,7.6346254 2.21760702,9.267263 4.09522711,9.63755975 C3.75139418,9.72994463 3.38833122,9.77916608 3.01373024,9.77916608 C2.74989423,9.77916608 2.49221184,9.75341947 2.24222145,9.70722703 C2.76450906,11.3118463 4.27983539,12.4802878 6.07515096,12.5128496 C4.67135879,13.5964788 2.90219607,14.2424156 0.979193108,14.2424156 C0.648436599,14.2424156 0.321526095,14.2234843 0,14.1856217 C1.816084,15.3313455 3.97215492,16 6.28975809,16 C13.8371601,16 17.9631553,9.84504709 17.9631553,4.50717024 C17.9631553,4.33224478 17.9593093,4.15807658 17.9516172,3.98466563 C18.7538941,3.41445407 19.4500212,2.70339344 20,1.89388991 Z" id="Social_2" fill="#00C27B" fill-rule="nonzero"></path>
    </g>
</svg>