<?xml version="1.0" encoding="UTF-8"?>
<svg width="79px" height="66px" viewBox="0 0 79 66" version="1.1" xmlns="http://www.w3.org/2000/svg" xmlns:xlink="http://www.w3.org/1999/xlink">
    <!-- Generator: Sketch 54 (76480) - https://sketchapp.com -->
    <title>Increase Campaigns ROI</title>
    <desc>Created with Sketch.</desc>
    <g id="Page-1" stroke="none" stroke-width="1" fill="none" fill-rule="evenodd">
        <g id="Increase-Campaigns-ROI" transform="translate(-1.000000, -7.000000)">
            <g id="Group-18">
                <g id="Group-21">
                    <rect id="Rectangle-Copy-21" x="0" y="0" width="80" height="80"></rect>
                    <rect id="Rectangle" fill="#0F0F0F" x="1" y="32" width="7" height="25"></rect>
                    <rect id="Rectangle-Copy-42" fill="#0F0F0F" x="20" y="24" width="7" height="33"></rect>
                    <rect id="Rectangle-Copy-44" fill="#0F0F0F" x="39" y="15" width="7" height="42"></rect>
                    <rect id="Rectangle-Copy-46" fill="#0F0F0F" x="58" y="7" width="7" height="50"></rect>
                </g>
            </g>
            <g id="Group-14" transform="translate(49.000000, 42.000000)">
                <circle id="Oval" fill="#00C27B" cx="15.7272727" cy="15.2727273" r="15.2727273"></circle>
                <polygon id="Rectangle-Copy-22" fill="#F6F6F6" points="7.61763084 14.5454545 10.7674701 17.6952938 3.62402344 24.637207 2.3338623 22.8094482 1.43127441 20.8881836"></polygon>
                <polygon id="Rectangle-Copy-47" fill="#F6F6F6" points="16.7709301 11.2103371 19.9207694 14.3601764 10.1498393 24.1311065 7 20.9812672"></polygon>
                <polygon id="Rectangle" fill="#F6F6F6" transform="translate(18.429379, 12.844294) rotate(-357.000000) translate(-18.429379, -12.844294) " points="13.7802099 8.72430988 23.0785486 8.23700459 22.5074826 17.4515826 18.1438463 13.0879462"></polygon>
            </g>
        </g>
    </g>
</svg>