<?xml version="1.0" encoding="UTF-8"?>
<svg width="16px" height="16px" viewBox="0 0 16 16" version="1.1" xmlns="http://www.w3.org/2000/svg" xmlns:xlink="http://www.w3.org/1999/xlink">
    <!-- Generator: Sketch 54 (76480) - https://sketchapp.com -->
    <title>Social_4</title>
    <desc>Created with Sketch.</desc>
    <g id="Page-1" stroke="none" stroke-width="1" fill="none" fill-rule="evenodd">
        <path d="M14.2222222,0 L1.77777778,0 C0.795555556,0 0,0.795555556 0,1.77777778 L0,14.2222222 C0,15.2044444 0.795555556,16 1.77777778,16 L14.2222222,16 C15.2044444,16 16,15.2044444 16,14.2222222 L16,1.77777778 C16,0.795555556 15.2044444,0 14.2222222,0 Z M5.33333333,12.4444444 L3.09066667,12.4444444 L3.09066667,6.22222222 L5.33333333,6.22222222 L5.33333333,12.4444444 Z M4.17244444,5.08177778 C3.48711111,5.08177778 3.02933333,4.62488889 3.02933333,4.01511111 C3.02933333,3.40533333 3.48622222,2.94844444 4.248,2.94844444 C4.93333333,2.94844444 5.39111111,3.40533333 5.39111111,4.01511111 C5.39111111,4.62488889 4.93422222,5.08177778 4.17244444,5.08177778 Z M13.3333333,12.4444444 L11.1626667,12.4444444 L11.1626667,9.04355556 C11.1626667,8.10311111 10.584,7.88622222 10.3671111,7.88622222 C10.1502222,7.88622222 9.42666667,8.03111111 9.42666667,9.04355556 C9.42666667,9.18844444 9.42666667,12.4444444 9.42666667,12.4444444 L7.184,12.4444444 L7.184,6.22222222 L9.42666667,6.22222222 L9.42666667,7.09066667 C9.71555556,6.584 10.2942222,6.22222222 11.3795556,6.22222222 C12.4648889,6.22222222 13.3333333,7.09066667 13.3333333,9.04355556 L13.3333333,12.4444444 Z" id="Social_4" fill="#00C27B" fill-rule="nonzero"></path>
    </g>
</svg>