<svg xmlns="http://www.w3.org/2000/svg" width="79" height="72" viewBox="0 0 79 72"><g><g><g><g><path fill="#fff" d="M21 34h4v4h-4z"/></g><g><path fill="#fff" d="M33 34h4v4h-4z"/></g><g><path fill="#fff" d="M45 34h4v4h-4z"/></g><g><path fill="#fff" d="M7.5 19.5h56v33.287H11.707L7.5 56.45zm6.827 40.287H70.5V12.5H.5v59.322z"/></g><g><path fill="#00c27b" d="M63 32c8.837 0 16-7.163 16-16S71.837 0 63 0 47 7.163 47 16s7.163 16 16 16z"/></g><g><path fill="#fff" d="M65.82 18.798a3.992 3.992 0 0 1-5.65 0 4.004 4.004 0 0 1 0-5.657 3.99 3.99 0 0 1 5.65 0 4.003 4.003 0 0 1 0 5.657zm4.18-1.88v-1.922l-1.663-.961-.011.006a5.69 5.69 0 0 0-.205-.493l.01-.003.497-1.857-1.357-1.359-1.855.498-.002.01a5.593 5.593 0 0 0-.526-.217L63.954 9h-1.92l-.935 1.622c-.177.062-.351.134-.522.215l-1.843-.494-1.358 1.359.494 1.845c-.076.16-.144.324-.203.49l-.004-.002-1.663.96v1.923l1.658.959c.063.177.135.351.216.522l-.49 1.83 1.358 1.359 1.827-.49c.17.08.343.152.518.214l-.013.023.96 1.665h1.92l.96-1.665-.013-.022c.172-.06.34-.13.507-.21l1.855.498 1.358-1.36-.497-1.855c.078-.167.148-.337.209-.509z"/></g></g></g></g></svg>