<?xml version="1.0" encoding="UTF-8"?>
<svg width="82px" height="66px" viewBox="0 0 82 66" version="1.1" xmlns="http://www.w3.org/2000/svg" xmlns:xlink="http://www.w3.org/1999/xlink">
    <!-- Generator: Sketch 54 (76480) - https://sketchapp.com -->
    <title>Avoid ESPs Blockages</title>
    <desc>Created with Sketch.</desc>
    <g id="Page-1" stroke="none" stroke-width="1" fill="none" fill-rule="evenodd">
        <g id="Avoid-ESPs-Blockages" transform="translate(0.000000, -7.000000)">
            <g id="Group-12">
                <rect id="Rectangle-Copy" x="1" y="0" width="80" height="80"></rect>
                <rect id="Rectangle-Copy-45" stroke="#0F0F0F" stroke-width="7" x="3.5" y="10.5" width="59" height="43"></rect>
                <polygon id="Path-14-Copy" fill="#0F0F0F" fill-rule="nonzero" points="5.21817062 17.5520116 2.78182938 24.1143467 33.2344028 35.4202095 63.2348576 24.1081031 60.7651424 17.5582552 33.2153797 27.9462927"></polygon>
                <g id="Group-22-Copy" transform="translate(50.000000, 41.000000)">
                    <circle id="Oval" fill="#00C27B" cx="16" cy="16" r="16"></circle>
                    <path d="M19.4401862,16.7820263 L24.5,13.1329692 L18.2466937,13.1329692 C18.1019037,13.129976 17.9751442,13.0357978 17.9315659,12.8988394 L15.9999172,7 L14.0682684,12.9006467 C14.0244787,13.0371919 13.8976109,13.130723 13.7531407,13.1329692 L7.5,13.1329692 L12.5596481,16.7812048 C12.675373,16.8633947 12.7239908,17.0105098 12.6797678,17.1446811 L10.7474977,23.0501336 L15.8049505,19.4039928 C15.9209331,19.3202474 16.0780882,19.3200319 16.1943039,19.4034589 L21.2520467,23.0446706 L19.3198595,17.1421344 C19.2756293,17.0089189 19.3244901,16.8626908 19.4401862,16.7820263 Z" id="Path" fill="#FFFFFF" fill-rule="nonzero"></path>
                </g>
            </g>
        </g>
    </g>
</svg>